<?xml version="1.0" encoding="UTF-8"?>
<svg version="1.1" viewBox="0 0 172 42" xmlns="http://www.w3.org/2000/svg" xmlns:cc="http://creativecommons.org/ns#" xmlns:dc="http://purl.org/dc/elements/1.1/" xmlns:rdf="http://www.w3.org/1999/02/22-rdf-syntax-ns#" xmlns:xlink="http://www.w3.org/1999/xlink">
 <metadata>
  <rdf:RDF>
   <cc:Work rdf:about="">
    <dc:format>image/svg+xml</dc:format>
    <dc:type rdf:resource="http://purl.org/dc/dcmitype/StillImage"/>
   </cc:Work>
  </rdf:RDF>
 </metadata>
 <defs>
  <linearGradient id="linearGradient4" x1="94.875" x2="94.875" y1="-65.403" y2="110.77" gradientTransform="matrix(.99828 0 0 .99828 -6.4063 -2.4827)" gradientUnits="userSpaceOnUse">
   <stop stop-color="#0ff" offset="0"/>
   <stop stop-color="#0058ff" offset="1"/>
  </linearGradient>
 </defs>
 <path transform="scale(.97617 1.0244)" d="m0.36862 34.661h17.852v-5.1059h-12.56v-22.101h-5.2922zm21.616 0h5.2549v-20.125h-5.2549zm-0.67084-25.79c0 1.9007 1.3417 3.2797 3.2797 3.2797 1.9753 0 3.317-1.379 3.317-3.2797 0-1.938-1.3417-3.3542-3.317-3.3542-1.9007 0-3.2797 1.4162-3.2797 3.3542zm21.392 26.2c4.9568 0 9.6527-4.0623 9.6527-10.473s-4.6214-10.473-9.69-10.473c-2.7206 0-4.9568 1.2299-6.2985 3.1679v-12.038h-5.1059v29.405h5.0686v-2.7952c1.3417 2.0125 3.6896 3.2051 6.373 3.2051zm-1.0435-4.845c-3.1679 0-5.5904-2.5343-5.5904-5.6649 0-3.1306 2.4225-5.6649 5.5904-5.6649 3.0933 0 5.5531 2.497 5.5531 5.6649 0 3.1679-2.4598 5.6649-5.5531 5.6649zm14.05 4.435h5.1059v-10.622c0-3.3915 1.7144-4.7332 4.3605-4.7332 1.1553 0 2.1243 0.29815 2.6834 0.70811l1.8635-5.0686c-0.85719-0.44723-2.0498-0.78265-3.3915-0.78265-2.5716 0-4.5841 1.0808-5.5531 3.466v-3.0933h-5.0686zm25.008 0.40996c4.435 0 7.2675-1.8262 9.28-4.6586l-4.2114-2.4598c-1.0063 1.6398-2.6088 2.6834-4.9941 2.6834-2.9815 0-5.1059-1.6398-5.7767-4.2487h15.988v-1.938c0-5.9631-4.3605-10.324-10.398-10.324-6.0003 0-10.547 4.6586-10.547 10.51s4.1741 10.435 10.659 10.435zm-0.11181-16.585c2.6834 0 4.6214 1.379 5.2922 3.876h-10.734c0.81992-2.348 2.8325-3.876 5.4413-3.876zm20.349 16.175h5.2922l5.7022-19.194 5.6649 19.194h5.1804l7.752-27.206h-5.2922l-5.1059 18.97-5.6276-18.97h-5.0686l-5.6649 18.933-4.9941-18.933h-5.404zm39.878 0.40996c6.0749 0 10.659-4.6959 10.659-10.473 0-5.814-4.6586-10.473-10.659-10.473-6.0376 0-10.622 4.6586-10.622 10.473 0 5.7767 4.5841 10.473 10.622 10.473zm0.0373-4.8823c-3.0933 0-5.5158-2.497-5.5158-5.6276 0-3.1306 2.4225-5.6276 5.5158-5.6276 3.0561 0 5.5158 2.497 5.5158 5.6276 0 3.1306-2.4598 5.6276-5.5158 5.6276zm13.976 4.4723h5.1431v-29.368h-5.1431zm8.1247-15.504h3.317v15.504h5.1059v-15.504h4.845v-4.6214h-4.845v-0.969c0-3.0561 0.40996-3.5778 3.9878-3.5778h0.85719v-4.6959h-1.3417c-6.5594 0-8.6092 2.0125-8.6092 8.5346v0.70811h-3.317z" fill="url(#linearGradient4)" stroke-width=".99828" aria-label="LibreWolf"/>
</svg>
