<svg role="img" viewBox="0 0 400 400" xmlns="http://www.w3.org/2000/svg" id="Librewolf--Streamline-Simple-Icons" height="400" width="400">
  <desc>
    Librewolf Streamline Icon: https://streamlinehq.com
  </desc>
  <title>LibreWolf</title>
  <path d="M200 0C89.54333333333335 0 0 89.54333333333335 0 200s89.54333333333335 200 200 200 200 -89.54333333333335 200 -200A200 200 0 0 0 200 0m0.51 40.290000000000006c42.31666666666667 0 79.87833333333334 15.161666666666667 110.31666666666668 44.53000000000001 14.665000000000001 14.15 24.5 27.566666666666666 32.92 44.92166666666667 11.39 23.475 16 43.895 16 70.83833333333334 0 35.470000000000006 -10.24 66.40166666666667 -31.51666666666667 95.17833333333334 -6.32 8.55 -18.67 21.541666666666668 -26.86666666666667 28.258333333333336 -22.478333333333335 18.428333333333335 -51.13333333333334 30.895 -79.56500000000001 34.623333333333335 -9.823333333333334 1.2866666666666668 -33.03333333333334 1.4466666666666668 -42.05333333333334 0.29v0.0016666666666666668c-28.01666666666667 -3.5933333333333337 -54.81166666666667 -14.765 -78.19833333333335 -32.59166666666667 -7.626666666666667 -5.815 -21.938333333333336 -20.21666666666667 -28.185000000000002 -28.366666666666667 -17.495 -22.823333333333334 -28.375 -48.72833333333334 -31.965 -76.105 -1.5366666666666668 -11.720000000000002 -1.5266666666666668 -33.266666666666666 0.018333333333333337 -43.97833333333334 7.7250000000000005 -53.550000000000004 41.425000000000004 -99.48 89.81666666666668 -122.415 22.508333333333336 -10.666666666666668 43.11333333333334 -15.185000000000002 69.27833333333334 -15.185000000000002m-0.525 24.19c-24.59166666666667 -0.023333333333333334 -46.155 5.611666666666667 -67.495 17.643333333333334 -19.428333333333335 10.953333333333335 -39.513333333333335 31.061666666666667 -50.51333333333334 50.57 -8.1 14.366666666666667 -14.028333333333334 31.42 -16.343333333333334 47 -1.5166666666666668 10.216666666666667 -1.5483333333333333 30.50166666666667 -0.060000000000000005 40.28333333333333 2.976666666666667 19.576666666666668 10.401666666666667 38.92333333333333 21.166666666666668 55.15166666666667 5.878333333333334 8.861666666666666 5.693333333333334 8.765 10.88 5.798333333333334 9.276666666666667 -5.3066666666666675 11.696666666666667 -7.876666666666668 16.75 -17.776666666666667 5.910000000000001 -11.576666666666668 12.226666666666668 -21.693333333333335 17.936666666666667 -28.720000000000002 6.588333333333334 -8.111666666666668 7.493333333333334 -9.553333333333335 10.8 -17.211666666666666 1.6616666666666666 -3.8533333333333335 4.6466666666666665 -9.513333333333334 6.63 -12.576666666666668l3.6083333333333334 -5.568333333333334 -4.666666666666668 -4.588333333333334c-6.2 -6.091666666666667 -11.356666666666667 -13.003333333333334 -12.325000000000001 -16.51666666666667 -0.9916666666666667 -3.586666666666667 0.18000000000000002 -5.588333333333334 4.836666666666667 -8.278333333333334 4.708333333333333 -2.72 8.075000000000001 -3.5 20.660000000000004 -4.795000000000001 6.128333333333334 -0.6283333333333333 12.780000000000001 -1.7816666666666667 14.875 -2.5783333333333336 2.0833333333333335 -0.7916666666666667 8.313333333333334 -4.183333333333334 13.841666666666669 -7.533333333333334 15.961666666666668 -9.678333333333335 17.313333333333333 -10.178333333333335 26.883333333333336 -9.971666666666668 8.083333333333334 0.17666666666666667 8.098333333333334 0.1716666666666667 12.89 -2.725 10.043333333333335 -6.070000000000001 24.468333333333334 -17.025000000000002 43.45000000000001 -32.995000000000005 3.6383333333333336 -3.0633333333333335 7.1433333333333335 -5.466666666666668 7.79 -5.343333333333334 2.6833333333333336 0.5166666666666667 7.616666666666667 12.616666666666667 8.365 20.525000000000002 0.45333333333333337 4.796666666666667 -0.47500000000000003 9.541666666666668 -3.32 16.96666666666667 -0.7766666666666667 2.025 -1.1333333333333335 3.9583333333333335 -0.795 4.295 0.8150000000000001 0.81 3.6083333333333334 -2.6783333333333337 3.6083333333333334 -4.505 0 -2.328333333333333 1.54 -2.595 3.636666666666667 -0.6283333333333333 1.5250000000000001 1.4316666666666669 2.8416666666666672 1.8416666666666668 5.908333333333333 1.8416666666666668 3.3500000000000005 0 4.178333333333334 0.31 5.483333333333334 2.0533333333333337 2.22 2.9583333333333335 2.74 11.026666666666667 1.0416666666666667 16.136666666666667 -1.6500000000000001 4.971666666666668 -6.6433333333333335 10.705 -11.173333333333334 12.833333333333334 -4.051666666666667 1.905 -12.256666666666668 9.918333333333333 -16.096666666666668 15.720000000000002 -1.4700000000000002 2.22 -4.226666666666667 6.8500000000000005 -6.125 10.286666666666667 -1.9000000000000001 3.438333333333334 -5.083333333333334 8.633333333333335 -7.076666666666667 11.541666666666668 -3.923333333333334 5.7266666666666675 -7.283333333333334 13.716666666666667 -10.526666666666669 25.028333333333336 -1.905 6.6450000000000005 -2.0633333333333335 8.375 -2.141666666666667 23.196666666666665 -0.09500000000000001 17.903333333333336 -1.0216666666666667 22.29666666666667 -5.863333333333334 27.810000000000002 -5.501666666666667 6.2666666666666675 -10.993333333333334 20.03 -11.455000000000002 28.708333333333336 -0.29166666666666674 5.4766666666666675 -1.1366666666666667 10.816666666666668 -2.3350000000000004 14.770000000000001 -0.5283333333333333 1.7416666666666667 0.45833333333333337 1.7200000000000002 6.333333333333334 -0.13166666666666668 17.116666666666667 -5.3950000000000005 31.063333333333333 -12.646666666666668 44.53000000000001 -23.148333333333337 7.16 -5.583333333333334 19.536666666666665 -18.078333333333333 24.725 -24.963333333333335 14.075000000000001 -18.67 23.650000000000002 -42.05833333333334 26.468333333333337 -64.64166666666667 1.3566666666666667 -10.876666666666667 0.5700000000000001 -33.88666666666667 -1.5016666666666667 -43.875 -5.488333333333333 -26.458333333333332 -17.316666666666666 -48.806666666666665 -35.943333333333335 -67.93166666666667 -11.613333333333333 -11.923333333333336 -22.185000000000002 -19.783333333333335 -35.788333333333334 -26.60166666666667 -20.64 -10.350000000000001 -38.32333333333334 -14.530000000000001 -61.55333333333334 -14.555m25.26666666666667 88.56666666666668 -11.606666666666667 1.626666666666667 -7.216666666666667 9.24 11.610000000000001 -1.6300000000000001z" fill="#0fb3df" stroke-width="16.6667"></path>
</svg>